#N canvas -1717 -9 1708 856 24;
#X declare -lib mrpeach;
#X obj 17 -125 import mrpeach;
#X obj 390 531 udpsend;
#X obj 391 369 packOSC;
#X msg 458 421 disconnect;
#X floatatom 322 54 5 0 0 0 - - -;
#X obj 322 99 * 2;
#X floatatom 321 150 5 0 0 0 - - -;
#X msg 322 202 send /s \$1;
#X obj 499 -35 tgl 15 0 empty empty empty 17 7 0 10 -262144 -1 -1 0
1;
#X obj 500 12 metro 100;
#X obj 500 70 random 16;
#X floatatom 499 128 5 0 0 0 - - -;
#X msg 503 188 send /l \$1;
#X obj 1428 575 unpackOSC;
#X obj 1430 630 print;
#X msg 454 472 connect 192.168.100.7 12000;
#X obj 323 -103 tgl 15 0 empty empty empty 17 7 0 10 -262144 -1 -1
0 1;
#X obj 324 -56 metro 100;
#X obj 324 2 random 128;
#X obj 1428 519 udpreceive 12001;
#X msg 879 319 440;
#X floatatom 870 425 5 0 0 0 - - -;
#X obj 872 469 osc~;
#X obj 868 534 dac~;
#X obj 807 35 random 8;
#X floatatom 808 77 5 0 0 0 - - -;
#X obj 810 140 select 0 1 2 3 4 5 6 7;
#X floatatom 625 -41 5 0 0 0 - - -;
#X msg 1023 393 0;
#X msg 1164 317 660;
#X msg 1089 316 600;
#X msg 1014 317 550;
#X msg 947 320 500;
#X msg 812 319 400;
#X msg 746 321 330;
#X msg 676 319 300;
#X text 1069 389 stop;
#X connect 2 0 1 0;
#X connect 3 0 1 0;
#X connect 4 0 5 0;
#X connect 5 0 6 0;
#X connect 6 0 7 0;
#X connect 7 0 2 0;
#X connect 8 0 9 0;
#X connect 9 0 10 0;
#X connect 9 0 24 0;
#X connect 10 0 11 0;
#X connect 11 0 12 0;
#X connect 12 0 2 0;
#X connect 13 0 14 0;
#X connect 15 0 1 0;
#X connect 16 0 17 0;
#X connect 17 0 18 0;
#X connect 18 0 4 0;
#X connect 19 0 13 0;
#X connect 20 0 21 0;
#X connect 21 0 22 0;
#X connect 22 0 23 0;
#X connect 22 0 23 1;
#X connect 24 0 25 0;
#X connect 25 0 26 0;
#X connect 26 0 35 0;
#X connect 26 1 34 0;
#X connect 26 2 33 0;
#X connect 26 3 20 0;
#X connect 26 4 32 0;
#X connect 26 5 31 0;
#X connect 26 6 30 0;
#X connect 26 7 29 0;
#X connect 27 0 9 1;
#X connect 28 0 21 0;
#X connect 29 0 21 0;
#X connect 30 0 21 0;
#X connect 31 0 21 0;
#X connect 32 0 21 0;
#X connect 33 0 21 0;
#X connect 34 0 21 0;
#X connect 35 0 21 0;
